<svg xmlns="http://www.w3.org/2000/svg" xmlns:xlink="http://www.w3.org/1999/xlink" xml:space="preserve" version="1.1" style="shape-rendering:geometricPrecision;text-rendering:geometricPrecision;image-rendering:optimizeQuality;" viewBox="0 0 213 235" x="0px" y="0px" fill-rule="evenodd" clip-rule="evenodd"><defs><style type="text/css">
   
    .fil0 {fill:black}
    .fil1 {fill:black;fill-rule:nonzero}
   
  </style></defs><g><path class="fil0" d="M117 235c-69,0 -111,-42 -113,-144 -10,-37 -1,-63 23,-79 6,12 13,24 19,37 42,-23 84,-31 127,-8 2,-14 4,-27 6,-41 29,18 37,47 28,83 22,106 -16,149 -90,152zm5 -123c16,-12 33,-25 49,-38 26,34 -1,69 -49,38zm-40 4c-18,-11 -35,-22 -52,-33 -23,36 6,69 52,33zm36 111c-54,-2 -88,-23 -85,-84 25,-1 49,2 73,9 24,-11 50,-19 80,-23 3,63 5,80 -68,98z"></path><path class="fil1" d="M137 171c-17,17 -33,16 -52,3l2 -3c18,12 32,12 47,-3l3 3z"></path></g></svg>